<?xml version="1.0" encoding="utf-8"?>
<!-- Generator: Adobe Illustrator 26.0.1, SVG Export Plug-In . SVG Version: 6.00 Build 0)  -->
<svg version="1.1" id="Ebene_1" xmlns="http://www.w3.org/2000/svg" xmlns:xlink="http://www.w3.org/1999/xlink" x="0px" y="0px"
	 viewBox="0 0 344.62 209.1" style="enable-background:new 0 0 344.62 209.1;" xml:space="preserve">
<style type="text/css">
	.st0{fill:#C4161C;}
</style>
<g>
	<path d="M45.32,0C20.33,0,0,20.33,0,45.33v118.44c0,24.99,20.33,45.32,45.32,45.32h253.97c24.99,0,45.32-20.33,45.32-45.32V45.33
		c0-25-20.33-45.33-45.32-45.33H45.32z M2.47,163.77V45.33c0-23.63,19.23-42.85,42.85-42.85h253.97c23.63,0,42.86,19.22,42.86,42.85
		v118.44c0,23.63-19.23,42.86-42.86,42.86H45.32C21.7,206.63,2.47,187.4,2.47,163.77"/>
	<path class="st0" d="M44.47,107.91h120.35V94.85H44.47v-5.23c0-18.1,13.62-31.16,30.23-31.16h90.12V45.4H74.7
		c-24.07,0-43.29,18.29-43.29,44.22v49.82h13.06V107.91z"/>
	<path class="st0" d="M193.39,56.97V17.22h-13.06v121.66h13.06V82.72c2.43-14,13.62-24.26,29.49-24.26h47.77
		c16.79,0,30.23,13.62,30.23,30.23v50.2h13.06v-50.2c0-23.88-19.23-43.29-43.29-43.29h-47.77C210.93,45.4,201.04,49.88,193.39,56.97
		"/>
	<path d="M43.59,164.86c3.39,0,6.03,1.14,7.91,3.42c1.89,2.28,2.83,5.06,2.83,8.33c0,3.27-0.94,6.05-2.83,8.32
		c-1.88,2.28-4.52,3.43-7.91,3.43c-3.39,0-6.03-1.15-7.92-3.43c-1.88-2.27-2.83-5.05-2.83-8.32c0-3.27,0.95-6.04,2.83-8.33
		C37.55,166,40.2,164.86,43.59,164.86 M43.59,185.84c2.56,0,4.48-0.9,5.78-2.7c1.32-1.83,1.98-4,1.98-6.54s-0.66-4.7-1.98-6.51
		c-1.3-1.82-3.22-2.73-5.78-2.73c-2.55,0-4.5,0.91-5.81,2.73c-1.3,1.8-1.95,3.97-1.95,6.51s0.65,4.71,1.95,6.54
		C39.09,184.94,41.03,185.84,43.59,185.84"/>
	<path d="M57.97,165.4h8.14c1.47,0,2.67,0.04,3.61,0.12c0.94,0.08,1.77,0.35,2.48,0.79c0.71,0.42,1.3,1.03,1.76,1.82
		c0.48,0.78,0.73,1.7,0.73,2.77c0,1.17-0.3,2.2-0.88,3.08c-0.58,0.87-1.4,1.51-2.45,1.94c1.38,0.32,2.44,0.96,3.17,1.92
		c0.73,0.97,1.1,2.15,1.1,3.55c0,1.76-0.6,3.28-1.82,4.56c-1.19,1.25-2.85,1.88-4.99,1.88H57.97V165.4z M60.95,185.31h7.48
		c1.3,0,2.32-0.36,3.08-1.07c0.75-0.71,1.13-1.69,1.13-2.95c0-1.34-0.45-2.29-1.35-2.86c-0.9-0.59-2.08-0.88-3.52-0.88h-6.82V185.31
		z M60.95,175.04h5.97c1.65,0,2.86-0.29,3.61-0.88c0.78-0.6,1.16-1.5,1.16-2.7c0-1.4-0.42-2.35-1.26-2.83
		c-0.83-0.47-2.01-0.72-3.52-0.72h-5.97V175.04z"/>
</g>
<polygon points="79.49,165.4 94.97,165.4 94.97,167.91 82.47,167.91 82.47,175.04 94.12,175.04 94.12,177.55 82.47,177.55 
	82.47,185.31 95.07,185.31 95.07,187.82 79.49,187.82 "/>
<g>
	<path d="M98.68,165.4h10.56c2.11,0,3.78,0.53,4.99,1.57c1.22,1.04,1.82,2.48,1.82,4.3c0,1.44-0.32,2.66-0.98,3.64
		c-0.63,0.99-1.6,1.66-2.92,2.04c1.19,0.26,2.02,0.78,2.48,1.57c0.46,0.78,0.74,1.77,0.85,2.98c0.1,1.19,0.19,2.35,0.28,3.46
		c0.16,1.24,0.52,2.19,1.06,2.86h-3.33c-0.33-0.36-0.54-1.25-0.6-2.67c-0.04-1.42-0.11-2.38-0.21-2.86
		c-0.23-1.68-0.67-2.77-1.3-3.27c-0.6-0.51-1.42-0.78-2.45-0.78h-7.29v9.58h-2.98V165.4z M107.88,175.73c1.61,0,2.88-0.29,3.8-0.85
		c0.92-0.56,1.38-1.61,1.38-3.14c0-1.16-0.33-2.07-1-2.76c-0.65-0.71-1.64-1.07-2.98-1.07h-7.41v7.82H107.88z"/>
	<path d="M129.68,164.86c3.39,0,6.03,1.14,7.92,3.42c1.88,2.29,2.82,5.06,2.82,8.33c0,3.27-0.94,6.05-2.82,8.32
		c-1.89,2.28-4.53,3.43-7.92,3.43c-3.39,0-6.03-1.16-7.91-3.43c-1.89-2.27-2.83-5.06-2.83-8.32c0-3.27,0.95-6.04,2.83-8.33
		C123.65,166,126.29,164.86,129.68,164.86 M129.68,185.84c2.56,0,4.48-0.9,5.78-2.7c1.32-1.83,1.98-4,1.98-6.54s-0.66-4.7-1.98-6.51
		c-1.3-1.82-3.23-2.73-5.78-2.73c-2.55,0-4.49,0.91-5.81,2.73c-1.3,1.8-1.95,3.97-1.95,6.51s0.65,4.71,1.95,6.54
		C125.19,184.94,127.12,185.84,129.68,185.84 M131.22,160.39h2.82v3.27h-2.82V160.39z M125.32,160.39h2.82v3.27h-2.82V160.39z"/>
	<path d="M157.04,171.97c-0.17-1.56-0.74-2.71-1.73-3.46c-0.96-0.76-2.24-1.14-3.83-1.14c-1.44,0-2.65,0.31-3.61,0.91
		c-0.94,0.59-1.41,1.57-1.41,2.92c0,1.21,0.5,2.03,1.48,2.45c0.98,0.4,2.9,0.92,5.75,1.57c2.85,0.64,4.75,1.47,5.68,2.52
		c0.96,1.04,1.45,2.36,1.45,3.92c0,2.2-0.88,3.86-2.64,5c-1.76,1.13-3.8,1.71-6.13,1.71c-2.7,0-4.92-0.67-6.66-1.99
		c-1.74-1.34-2.61-3.32-2.61-5.94h2.82c0,1.78,0.62,3.14,1.85,4.05c1.26,0.91,2.82,1.36,4.68,1.36c1.61,0,2.96-0.31,4.06-0.91
		c1.08-0.62,1.63-1.68,1.63-3.18c0-1.58-0.71-2.61-2.13-3.07c-1.41-0.46-3.32-0.96-5.75-1.47c-2.41-0.53-4.09-1.26-5.06-2.21
		c-0.95-0.96-1.41-2.16-1.41-3.58c0-2.16,0.79-3.79,2.36-4.9c1.59-1.11,3.51-1.67,5.77-1.67c2.43,0,4.41,0.6,5.94,1.79
		c1.55,1.19,2.33,2.97,2.33,5.31H157.04z"/>
</g>
<polygon points="169.51,167.91 162.03,167.91 162.03,165.4 179.97,165.4 179.97,167.91 172.49,167.91 172.49,187.82 169.51,187.82 
	"/>
<polygon points="182.45,165.4 197.94,165.4 197.94,167.91 185.43,167.91 185.43,175.04 197.08,175.04 197.08,177.55 185.43,177.55 
	185.43,185.31 198.03,185.31 198.03,187.82 182.45,187.82 "/>
<g>
	<path d="M201.64,165.4h10.55c2.11,0,3.79,0.53,4.99,1.57c1.22,1.04,1.83,2.48,1.83,4.3c0,1.44-0.33,2.66-0.98,3.64
		c-0.62,0.99-1.6,1.66-2.92,2.04c1.2,0.26,2.02,0.78,2.48,1.57c0.47,0.78,0.75,1.77,0.85,2.98c0.11,1.19,0.2,2.35,0.28,3.46
		c0.17,1.24,0.52,2.19,1.06,2.86h-3.33c-0.33-0.36-0.53-1.25-0.59-2.67c-0.04-1.42-0.12-2.38-0.22-2.86
		c-0.23-1.68-0.67-2.77-1.29-3.27c-0.61-0.51-1.42-0.78-2.45-0.78h-7.29v9.58h-2.98V165.4z M210.84,175.73
		c1.61,0,2.88-0.29,3.8-0.85c0.92-0.56,1.38-1.61,1.38-3.14c0-1.16-0.34-2.07-1-2.76c-0.65-0.71-1.65-1.07-2.99-1.07h-7.41v7.82
		H210.84z"/>
	<path d="M223.16,165.4h10.55c2.11,0,3.78,0.53,4.99,1.57c1.22,1.04,1.82,2.48,1.82,4.3c0,1.44-0.32,2.66-0.97,3.64
		c-0.63,0.99-1.6,1.66-2.92,2.04c1.19,0.26,2.02,0.78,2.48,1.57c0.46,0.78,0.74,1.77,0.85,2.98c0.1,1.19,0.2,2.35,0.29,3.46
		c0.16,1.24,0.52,2.19,1.06,2.86h-3.33c-0.33-0.36-0.53-1.25-0.6-2.67c-0.04-1.42-0.11-2.38-0.22-2.86
		c-0.23-1.68-0.66-2.77-1.29-3.27c-0.61-0.51-1.42-0.78-2.45-0.78h-7.29v9.58h-2.98V165.4z M232.37,175.73
		c1.61,0,2.87-0.29,3.79-0.85c0.92-0.56,1.38-1.61,1.38-3.14c0-1.16-0.33-2.07-1-2.76c-0.65-0.71-1.64-1.07-2.98-1.07h-7.41v7.82
		H232.37z"/>
</g>
<polygon points="244.67,165.4 260.16,165.4 260.16,167.91 247.66,167.91 247.66,175.04 259.31,175.04 259.31,177.55 247.66,177.55 
	247.66,185.31 260.25,185.31 260.25,187.82 244.67,187.82 "/>
<rect x="263.99" y="165.39" width="2.98" height="22.43"/>
<g>
	<path d="M287.77,172.15c-0.31-1.55-1.03-2.73-2.17-3.55c-1.11-0.82-2.48-1.23-4.12-1.23c-2.53,0-4.43,0.87-5.71,2.61
		c-1.25,1.75-1.88,3.91-1.88,6.47c0,2.77,0.63,5.03,1.88,6.79c1.28,1.73,3.2,2.6,5.75,2.6c1.95,0,3.51-0.6,4.68-1.79
		c1.2-1.22,1.79-2.78,1.79-4.69h2.98c-0.29,2.83-1.27,5.04-2.95,6.63c-1.67,1.57-3.92,2.36-6.75,2.36c-3.35,0-5.92-1.1-7.7-3.28
		c-1.78-2.17-2.67-4.98-2.67-8.42c0-3.41,0.93-6.23,2.8-8.45c1.86-2.24,4.47-3.36,7.82-3.36c2.43,0,4.49,0.64,6.19,1.91
		c1.69,1.26,2.71,3.05,3.04,5.38H287.77z"/>
</g>
<polygon points="294.68,165.4 297.66,165.4 297.66,175.04 309.48,175.04 309.48,165.4 312.45,165.4 312.45,187.82 309.48,187.82 
	309.48,177.55 297.66,177.55 297.66,187.82 294.68,187.82 "/>
<rect x="32.07" y="154.21" width="283.21" height="2.2"/>
</svg>
