<svg xmlns="http://www.w3.org/2000/svg" viewBox="0 0 344.62 209.1" style="enable-background:new 0 0 344.62 209.1" xml:space="preserve">
  <path d="M45.32 0C20.33 0 0 20.33 0 45.33v118.44c0 24.99 20.33 45.32 45.32 45.32h253.97c24.99 0 45.32-20.33 45.32-45.32V45.33c0-25-20.33-45.33-45.32-45.33H45.32zM2.47 163.77V45.33C2.47 21.7 21.7 2.48 45.32 2.48h253.97c23.63 0 42.86 19.22 42.86 42.85v118.44c0 23.63-19.23 42.86-42.86 42.86H45.32c-23.62 0-42.85-19.23-42.85-42.86"/>
  <path d="M44.47 107.91h120.35V94.85H44.47v-5.23c0-18.1 13.62-31.16 30.23-31.16h90.12V45.4H74.7c-24.07 0-43.29 18.29-43.29 44.22v49.82h13.06v-31.53zm148.92-50.94V17.22h-13.06v121.66h13.06V82.72c2.43-14 13.62-24.26 29.49-24.26h47.77c16.79 0 30.23 13.62 30.23 30.23v50.2h13.06v-50.2c0-23.88-19.23-43.29-43.29-43.29h-47.77c-11.95 0-21.84 4.48-29.49 11.57" style="fill:#c4161c"/>
  <path d="M43.59 164.86c3.39 0 6.03 1.14 7.91 3.42 1.89 2.28 2.83 5.06 2.83 8.33 0 3.27-.94 6.05-2.83 8.32-1.88 2.28-4.52 3.43-7.91 3.43-3.39 0-6.03-1.15-7.92-3.43-1.88-2.27-2.83-5.05-2.83-8.32 0-3.27.95-6.04 2.83-8.33 1.88-2.28 4.53-3.42 7.92-3.42m0 20.98c2.56 0 4.48-.9 5.78-2.7 1.32-1.83 1.98-4 1.98-6.54s-.66-4.7-1.98-6.51c-1.3-1.82-3.22-2.73-5.78-2.73-2.55 0-4.5.91-5.81 2.73-1.3 1.8-1.95 3.97-1.95 6.51s.65 4.71 1.95 6.54c1.31 1.8 3.25 2.7 5.81 2.7m14.38-20.44h8.14c1.47 0 2.67.04 3.61.12.94.08 1.77.35 2.48.79.71.42 1.3 1.03 1.76 1.82.48.78.73 1.7.73 2.77 0 1.17-.3 2.2-.88 3.08-.58.87-1.4 1.51-2.45 1.94 1.38.32 2.44.96 3.17 1.92.73.97 1.1 2.15 1.1 3.55 0 1.76-.6 3.28-1.82 4.56-1.19 1.25-2.85 1.88-4.99 1.88H57.97V165.4zm2.98 19.91h7.48c1.3 0 2.32-.36 3.08-1.07.75-.71 1.13-1.69 1.13-2.95 0-1.34-.45-2.29-1.35-2.86-.9-.59-2.08-.88-3.52-.88h-6.82v7.76zm0-10.27h5.97c1.65 0 2.86-.29 3.61-.88.78-.6 1.16-1.5 1.16-2.7 0-1.4-.42-2.35-1.26-2.83-.83-.47-2.01-.72-3.52-.72h-5.97v7.13zm18.54-9.64h15.48v2.51h-12.5v7.13h11.65v2.51H82.47v7.76h12.6v2.51H79.49zm19.19 0h10.56c2.11 0 3.78.53 4.99 1.57 1.22 1.04 1.82 2.48 1.82 4.3 0 1.44-.32 2.66-.98 3.64-.63.99-1.6 1.66-2.92 2.04 1.19.26 2.02.78 2.48 1.57.46.78.74 1.77.85 2.98.1 1.19.19 2.35.28 3.46.16 1.24.52 2.19 1.06 2.86h-3.33c-.33-.36-.54-1.25-.6-2.67-.04-1.42-.11-2.38-.21-2.86-.23-1.68-.67-2.77-1.3-3.27-.6-.51-1.42-.78-2.45-.78h-7.29v9.58h-2.98V165.4zm9.2 10.33c1.61 0 2.88-.29 3.8-.85.92-.56 1.38-1.61 1.38-3.14 0-1.16-.33-2.07-1-2.76-.65-.71-1.64-1.07-2.98-1.07h-7.41v7.82h6.21zm21.8-10.87c3.39 0 6.03 1.14 7.92 3.42 1.88 2.29 2.82 5.06 2.82 8.33 0 3.27-.94 6.05-2.82 8.32-1.89 2.28-4.53 3.43-7.92 3.43-3.39 0-6.03-1.16-7.91-3.43-1.89-2.27-2.83-5.06-2.83-8.32 0-3.27.95-6.04 2.83-8.33 1.88-2.28 4.52-3.42 7.91-3.42m0 20.98c2.56 0 4.48-.9 5.78-2.7 1.32-1.83 1.98-4 1.98-6.54s-.66-4.7-1.98-6.51c-1.3-1.82-3.23-2.73-5.78-2.73-2.55 0-4.49.91-5.81 2.73-1.3 1.8-1.95 3.97-1.95 6.51s.65 4.71 1.95 6.54c1.32 1.8 3.25 2.7 5.81 2.7m1.54-25.45h2.82v3.27h-2.82v-3.27zm-5.9 0h2.82v3.27h-2.82v-3.27zm31.72 11.58c-.17-1.56-.74-2.71-1.73-3.46-.96-.76-2.24-1.14-3.83-1.14-1.44 0-2.65.31-3.61.91-.94.59-1.41 1.57-1.41 2.92 0 1.21.5 2.03 1.48 2.45.98.4 2.9.92 5.75 1.57 2.85.64 4.75 1.47 5.68 2.52.96 1.04 1.45 2.36 1.45 3.92 0 2.2-.88 3.86-2.64 5-1.76 1.13-3.8 1.71-6.13 1.71-2.7 0-4.92-.67-6.66-1.99-1.74-1.34-2.61-3.32-2.61-5.94h2.82c0 1.78.62 3.14 1.85 4.05 1.26.91 2.82 1.36 4.68 1.36 1.61 0 2.96-.31 4.06-.91 1.08-.62 1.63-1.68 1.63-3.18 0-1.58-.71-2.61-2.13-3.07-1.41-.46-3.32-.96-5.75-1.47-2.41-.53-4.09-1.26-5.06-2.21-.95-.96-1.41-2.16-1.41-3.58 0-2.16.79-3.79 2.36-4.9 1.59-1.11 3.51-1.67 5.77-1.67 2.43 0 4.41.6 5.94 1.79 1.55 1.19 2.33 2.97 2.33 5.31h-2.83zm12.47-4.06h-7.48v-2.51h17.94v2.51h-7.48v19.91h-2.98zm12.94-2.51h15.49v2.51h-12.51v7.13h11.65v2.51h-11.65v7.76h12.6v2.51h-15.58zm19.19 0h10.55c2.11 0 3.79.53 4.99 1.57 1.22 1.04 1.83 2.48 1.83 4.3 0 1.44-.33 2.66-.98 3.64-.62.99-1.6 1.66-2.92 2.04 1.2.26 2.02.78 2.48 1.57.47.78.75 1.77.85 2.98.11 1.19.2 2.35.28 3.46.17 1.24.52 2.19 1.06 2.86h-3.33c-.33-.36-.53-1.25-.59-2.67-.04-1.42-.12-2.38-.22-2.86-.23-1.68-.67-2.77-1.29-3.27-.61-.51-1.42-.78-2.45-.78h-7.29v9.58h-2.98V165.4zm9.2 10.33c1.61 0 2.88-.29 3.8-.85.92-.56 1.38-1.61 1.38-3.14 0-1.16-.34-2.07-1-2.76-.65-.71-1.65-1.07-2.99-1.07h-7.41v7.82h6.22zm12.32-10.33h10.55c2.11 0 3.78.53 4.99 1.57 1.22 1.04 1.82 2.48 1.82 4.3 0 1.44-.32 2.66-.97 3.64-.63.99-1.6 1.66-2.92 2.04 1.19.26 2.02.78 2.48 1.57.46.78.74 1.77.85 2.98.1 1.19.2 2.35.29 3.46.16 1.24.52 2.19 1.06 2.86h-3.33c-.33-.36-.53-1.25-.6-2.67-.04-1.42-.11-2.38-.22-2.86-.23-1.68-.66-2.77-1.29-3.27-.61-.51-1.42-.78-2.45-.78h-7.29v9.58h-2.98V165.4zm9.21 10.33c1.61 0 2.87-.29 3.79-.85.92-.56 1.38-1.61 1.38-3.14 0-1.16-.33-2.07-1-2.76-.65-.71-1.64-1.07-2.98-1.07h-7.41v7.82h6.22zm12.3-10.33h15.49v2.51h-12.5v7.13h11.65v2.51h-11.65v7.76h12.59v2.51h-15.58zm19.32-.01h2.98v22.43h-2.98zm23.78 6.76c-.31-1.55-1.03-2.73-2.17-3.55-1.11-.82-2.48-1.23-4.12-1.23-2.53 0-4.43.87-5.71 2.61-1.25 1.75-1.88 3.91-1.88 6.47 0 2.77.63 5.03 1.88 6.79 1.28 1.73 3.2 2.6 5.75 2.6 1.95 0 3.51-.6 4.68-1.79 1.2-1.22 1.79-2.78 1.79-4.69h2.98c-.29 2.83-1.27 5.04-2.95 6.63-1.67 1.57-3.92 2.36-6.75 2.36-3.35 0-5.92-1.1-7.7-3.28-1.78-2.17-2.67-4.98-2.67-8.42 0-3.41.93-6.23 2.8-8.45 1.86-2.24 4.47-3.36 7.82-3.36 2.43 0 4.49.64 6.19 1.91 1.69 1.26 2.71 3.05 3.04 5.38h-2.98zm6.91-6.75h2.98v9.64h11.82v-9.64h2.97v22.42h-2.97v-10.27h-11.82v10.27h-2.98zM32.07 154.21h283.21v2.2H32.07z"/>
</svg>
