<svg height="512" width="512" xmlns="http://www.w3.org/2000/svg">
  <g clip-rule="evenodd" fill-rule="evenodd">
    <path d="m482.435 352.294-25.229 109.248C450.969 488.585 434.5 512 406.748 512H105.281c-27.751 0-44.221-23.415-50.457-50.458l-25.23-109.248L256 333.358z" fill="#b1e4f9"/>
    <path d="m482.435 352.294-25.229 109.248C450.969 488.585 434.5 512 406.748 512h-25.002c27.752 0 44.221-23.415 50.457-50.458l25.228-109.248zM49.126 314.451h79.201l118.886-14.514 136.49 14.514h79.171c18.086 0 33.309 12.841 36.993 29.878 1.22 5.641-.737 7.795-7.144 7.965H19.304c-6.32-.198-8.418-2.183-7.171-7.965 3.685-17.009 18.907-29.878 36.993-29.878z" fill="#90d8f9"/>
    <path d="M437.873 314.451h25.001c18.086 0 33.309 12.841 36.993 29.878 1.22 5.641-.737 7.795-7.144 7.965h-25.001c6.406-.17 8.362-2.324 7.143-7.965-3.684-17.037-18.907-29.878-36.992-29.878zm-220.509 75.687h77.273c20.807 0 37.843-17.037 37.843-37.844H179.521c0 20.807 17.036 37.844 37.843 37.844z" fill="#75cef9"/>
    <path d="M269.635 390.138h25.002c20.807 0 37.843-17.037 37.843-37.844h-25.001c0 20.807-17.037 37.844-37.844 37.844z" fill="#6bbef6"/>
    <path d="m447.794 179.151-21.373 92.553c-5.272 22.903-19.219 42.747-42.718 42.747H128.327c-23.501 0-37.447-19.844-42.748-42.747l-21.373-92.553 191.85-18.906z" fill="#ff8086"/>
    <path d="m447.794 179.151-21.373 92.553c-5.272 22.903-19.219 42.747-42.718 42.747H358.7c23.499 0 37.446-19.844 42.719-42.747l21.374-92.553z" fill="#ff646f"/>
    <path d="M80.222 141.31h78.124l93.885-8.986 101.424 8.986h78.152c18.085 0 33.307 12.869 36.992 29.905 1.305 6.038-.566 7.795-7.143 7.937H50.373c-6.378-.255-8.277-2.636-7.144-7.965 3.601-17.037 18.908-29.877 36.993-29.877z" fill="#ff646f"/>
    <path d="m402.696 37.843-16.328 70.782c-4.055 17.518-14.713 32.685-32.713 32.685H158.346c-17.972 0-28.63-15.167-32.685-32.685l-16.356-70.782 146.667-18.907z" fill="#b1e4f9"/>
    <path d="m402.696 37.843-16.328 70.782c-4.055 17.518-14.713 32.685-32.713 32.685h-25.001c18 0 28.658-15.167 32.711-32.685l16.328-70.782zM125.293 0h261.414c18.086 0 33.393 12.841 36.992 29.878 1.39 6.49-1.077 7.88-7.143 7.965H95.472c-6.633-.113-8.532-2.296-7.171-7.908C92.383 12.983 107.207 0 125.293 0z" fill="#90d8f9"/>
    <path d="M361.705 0h25.002c18.086 0 33.393 12.841 36.992 29.878 1.39 6.49-1.077 7.88-7.143 7.965h-25.002c6.066-.085 8.532-1.475 7.143-7.965C395.098 12.841 379.79 0 361.705 0zM239.219 75.687h33.562c20.807 0 37.844-17.036 37.844-37.844h-109.25c0 20.807 17.037 37.844 37.844 37.844z" fill="#75cef9"/>
    <path d="M247.78 75.687h25.002c20.807 0 37.844-17.036 37.844-37.844h-25.003c-.001 20.807-17.008 37.844-37.843 37.844z" fill="#6bbef6"/>
    <path d="M406.805 141.31h25.002c18.085 0 33.307 12.869 36.992 29.905 1.305 6.038-.566 7.795-7.143 7.937h-25.001c6.576-.142 8.447-1.898 7.143-7.937-3.685-17.036-18.907-29.905-36.993-29.905zm-178.499 75.685h55.417c20.808 0 37.844-17.009 37.844-37.844H190.462c0 20.835 17.036 37.844 37.844 37.844z" fill="#fb4455"/>
    <path d="M258.722 216.995h25.001c20.808 0 37.844-17.009 37.844-37.844h-25.002c0 20.835-17.037 37.844-37.843 37.844z" fill="#bc2f4d"/>
  </g>
</svg>
